<svg enable-background="new 0 0 50 50" height="50" viewBox="0 0 50 50" width="50" xmlns="http://www.w3.org/2000/svg" xmlns:xlink="http://www.w3.org/1999/xlink"><linearGradient id="a" gradientTransform="matrix(26 0 0 -26 -297.5938 931.0156)" gradientUnits="userSpaceOnUse" x1="12.9082" x2="11.8874" y1="35.3857" y2="34.3656"><stop offset="0" stop-color="#5cbc61"/><stop offset="1" stop-color="#46bfac"/></linearGradient><g><path d="m25 37c7.175 0 13-5.825 13-13s-5.825-13-13-13-13 5.825-13 13 5.825 13 13 13z" fill="url(#a)"/><path d="m23.129 28.009c.237.228.543.325.848.325s.577-.098.814-.325l7.02-6.394c.476-.422.509-1.136.034-1.591-.441-.454-1.188-.487-1.662-.032l-6.206 5.616-3.222-3.084c-.475-.455-1.221-.455-1.695 0-.475.454-.475 1.168 0 1.623z" fill="#fff"/></g></svg>